<svg width="36" height="782" viewBox="0 0 36 782" fill="none" xmlns="http://www.w3.org/2000/svg">
<path d="M35.1094 8.10233C35.1094 12.5771 28.8052 16.2047 18.0164 16.2047C7.22753 16.2047 0.109375 12.5771 0.109375 8.10233C0.109375 3.62754 7.22753 0 18.0164 0C28.8052 0 35.1094 3.62754 35.1094 8.10233Z" fill="#468D80"/>
<g style="mix-blend-mode:multiply">
<path d="M14.7602 10.263C14.8608 9.70053 12.4726 10.2101 9.70377 9.33844C6.9349 8.46678 5.90726 6.68733 5.80675 7.24977C5.70624 7.81221 6.27186 10.8716 9.04073 11.7432C16.9985 13.4121 19.4269 9.48398 14.7602 10.263Z" fill="#468D80"/>
</g>
<path d="M26.7883 5.37031C27.7005 5.89482 29.5249 9.56639 23.5956 10.5627C17.6135 11.5678 5.80762 9.20643 5.80762 7.46835C5.80762 5.73028 17.2102 4.32129 20.4029 4.32129C23.5956 4.32129 25.8761 4.8458 26.7883 5.37031Z" fill="#FFFBFB"/>
<g style="mix-blend-mode:plus-lighter">
<path d="M34.2957 10.8034C34.2957 14.0849 30.1048 18.3656 24.9352 18.3656C19.7656 18.3656 14.7608 27.5482 15.5747 10.8034C15.5747 7.5219 20.1725 4.86157 25.3422 4.86157C30.6329 6.48204 26.1561 8.10256 34.2957 10.8034Z" fill="#FCF6F6"/>
</g>
<path d="M35.1094 57.9179C35.1094 61.3532 28.8052 64.1381 18.0164 64.1381C7.22753 64.1381 0.109375 61.3532 0.109375 57.9179C0.109375 54.4826 7.22753 51.6978 18.0164 51.6978C28.8052 51.6978 35.1094 54.4826 35.1094 57.9179Z" fill="#468D80"/>
<g style="mix-blend-mode:multiply">
<path d="M14.7602 59.5766C14.8608 59.1448 12.4726 59.536 9.70377 58.8668C6.9349 58.1977 5.90726 56.8316 5.80675 57.2634C5.70624 57.6952 6.27186 60.0438 9.04073 60.713C16.9985 61.9942 19.4269 58.9786 14.7602 59.5766Z" fill="#468D80"/>
</g>
<path d="M26.7883 55.8205C27.7005 56.2231 29.5249 59.0418 23.5956 59.8066C17.6135 60.5783 5.80762 58.7654 5.80762 57.4311C5.80762 56.0968 17.2102 55.0151 20.4029 55.0151C23.5956 55.0151 25.8761 55.4178 26.7883 55.8205Z" fill="#FFFBFB"/>
<g style="mix-blend-mode:plus-lighter">
<path d="M34.2957 59.9915C34.2957 62.5107 30.1048 65.7969 24.9352 65.7969C19.7656 65.7969 14.7608 72.8465 15.5747 59.9915C15.5747 57.4723 20.1725 55.4299 25.3422 55.4299C30.6329 56.674 26.1561 57.918 34.2957 59.9915Z" fill="#FCF6F6"/>
</g>
<path d="M35.1094 103.712C35.1094 107.147 28.8052 109.932 18.0164 109.932C7.22753 109.932 0.109375 107.147 0.109375 103.712C0.109375 100.277 7.22753 97.4919 18.0164 97.4919C28.8052 97.4919 35.1094 100.277 35.1094 103.712Z" fill="#468D80"/>
<g style="mix-blend-mode:multiply">
<path d="M14.7602 105.371C14.8608 104.939 12.4726 105.33 9.70377 104.661C6.9349 103.992 5.90726 102.626 5.80675 103.058C5.70624 103.489 6.27186 105.838 9.04073 106.507C16.9985 107.788 19.4269 104.773 14.7602 105.371Z" fill="#468D80"/>
</g>
<path d="M26.7883 101.615C27.7005 102.017 29.5249 104.836 23.5956 105.601C17.6135 106.372 5.80762 104.56 5.80762 103.225C5.80762 101.891 17.2102 100.809 20.4029 100.809C23.5956 100.809 25.8761 101.212 26.7883 101.615Z" fill="#FFFBFB"/>
<g style="mix-blend-mode:plus-lighter">
<path d="M34.2957 105.786C34.2957 108.305 30.1048 111.591 24.9352 111.591C19.7656 111.591 14.7608 118.641 15.5747 105.786C15.5747 103.266 20.1725 101.224 25.3422 101.224C30.6329 102.468 26.1561 103.712 34.2957 105.786Z" fill="#FCF6F6"/>
</g>
<path d="M35.1094 143.4C35.1094 146.836 28.8052 149.62 18.0164 149.62C7.22753 149.62 0.109375 146.836 0.109375 143.4C0.109375 139.965 7.22753 137.18 18.0164 137.18C28.8052 137.18 35.1094 139.965 35.1094 143.4Z" fill="#468D80"/>
<g style="mix-blend-mode:multiply">
<path d="M14.7602 145.059C14.8608 144.627 12.4726 145.018 9.70377 144.349C6.9349 143.68 5.90726 142.314 5.80675 142.746C5.70624 143.178 6.27186 145.526 9.04073 146.195C16.9985 147.477 19.4269 144.461 14.7602 145.059Z" fill="#468D80"/>
</g>
<path d="M26.7883 141.303C27.7005 141.706 29.5249 144.524 23.5956 145.289C17.6135 146.061 5.80762 144.248 5.80762 142.914C5.80762 141.579 17.2102 140.498 20.4029 140.498C23.5956 140.498 25.8761 140.9 26.7883 141.303Z" fill="#FFFBFB"/>
<g style="mix-blend-mode:plus-lighter">
<path d="M34.2957 145.474C34.2957 147.993 30.1048 151.279 24.9352 151.279C19.7656 151.279 14.7608 158.329 15.5747 145.474C15.5747 142.955 20.1725 140.912 25.3422 140.912C30.6329 142.156 26.1561 143.4 34.2957 145.474Z" fill="#FCF6F6"/>
</g>
<path d="M35.1094 183.852C35.1094 187.287 28.8052 190.072 18.0164 190.072C7.22753 190.072 0.109375 187.287 0.109375 183.852C0.109375 180.417 7.22753 177.632 18.0164 177.632C28.8052 177.632 35.1094 180.417 35.1094 183.852Z" fill="#468D80"/>
<g style="mix-blend-mode:multiply">
<path d="M14.7602 185.511C14.8608 185.079 12.4726 185.47 9.70377 184.801C6.9349 184.132 5.90726 182.766 5.80675 183.198C5.70624 183.629 6.27186 185.978 9.04073 186.647C16.9985 187.929 19.4269 184.913 14.7602 185.511Z" fill="#468D80"/>
</g>
<path d="M26.7883 181.755C27.7005 182.157 29.5249 184.976 23.5956 185.741C17.6135 186.512 5.80762 184.7 5.80762 183.365C5.80762 182.031 17.2102 180.949 20.4029 180.949C23.5956 180.949 25.8761 181.352 26.7883 181.755Z" fill="#FFFBFB"/>
<g style="mix-blend-mode:plus-lighter">
<path d="M34.2957 185.926C34.2957 188.445 30.1048 191.731 24.9352 191.731C19.7656 191.731 14.7608 198.781 15.5747 185.926C15.5747 183.407 20.1725 181.364 25.3422 181.364C30.6329 182.608 26.1561 183.852 34.2957 185.926Z" fill="#FCF6F6"/>
</g>
<path d="M35.1094 222.014C35.1094 225.449 28.8052 228.234 18.0164 228.234C7.22753 228.234 0.109375 225.449 0.109375 222.014C0.109375 218.578 7.22753 215.793 18.0164 215.793C28.8052 215.793 35.1094 218.578 35.1094 222.014Z" fill="#468D80"/>
<g style="mix-blend-mode:multiply">
<path d="M14.7602 223.672C14.8608 223.24 12.4726 223.631 9.70377 222.962C6.9349 222.293 5.90726 220.927 5.80675 221.359C5.70624 221.791 6.27186 224.139 9.04073 224.808C16.9985 226.09 19.4269 223.074 14.7602 223.672Z" fill="#468D80"/>
</g>
<path d="M26.7883 219.916C27.7005 220.319 29.5249 223.137 23.5956 223.902C17.6135 224.674 5.80762 222.861 5.80762 221.527C5.80762 220.193 17.2102 219.111 20.4029 219.111C23.5956 219.111 25.8761 219.514 26.7883 219.916Z" fill="#FFFBFB"/>
<g style="mix-blend-mode:plus-lighter">
<path d="M34.2957 224.087C34.2957 226.606 30.1048 229.892 24.9352 229.892C19.7656 229.892 14.7608 236.942 15.5747 224.087C15.5747 221.568 20.1725 219.525 25.3422 219.525C30.6329 220.769 26.1561 222.013 34.2957 224.087Z" fill="#FCF6F6"/>
</g>
<path d="M35 253.041C35 256.477 28.6958 259.262 17.907 259.262C7.11816 259.262 0 256.477 0 253.041C0 249.606 7.11816 246.821 17.907 246.821C28.6958 246.821 35 249.606 35 253.041Z" fill="#468D80"/>
<g style="mix-blend-mode:multiply">
<path d="M14.6509 254.7C14.7514 254.269 12.3633 254.66 9.5944 253.991C6.82552 253.321 5.79789 251.955 5.69737 252.387C5.59686 252.819 6.16248 255.168 8.93136 255.837C16.8891 257.118 19.3175 254.102 14.6509 254.7Z" fill="#468D80"/>
</g>
<path d="M26.6779 250.944C27.5901 251.347 29.4145 254.165 23.4852 254.93C17.5032 255.702 5.69727 253.889 5.69727 252.555C5.69727 251.22 17.0998 250.139 20.2925 250.139C23.4852 250.139 25.7657 250.541 26.6779 250.944Z" fill="#FFFBFB"/>
<g style="mix-blend-mode:plus-lighter">
<path d="M34.1863 255.115C34.1863 257.634 29.9955 260.92 24.8258 260.92C19.6562 260.92 14.6514 267.97 15.4654 255.115C15.4654 252.596 20.0632 250.553 25.2328 250.553C30.5235 251.797 26.0468 253.041 34.1863 255.115Z" fill="#FCF6F6"/>
</g>
<path d="M35 289.677C35 293.112 28.6958 295.897 17.907 295.897C7.11816 295.897 0 293.112 0 289.677C0 286.241 7.11816 283.457 17.907 283.457C28.6958 283.457 35 286.241 35 289.677Z" fill="#468D80"/>
<g style="mix-blend-mode:multiply">
<path d="M14.6509 291.336C14.7514 290.904 12.3633 291.295 9.5944 290.626C6.82552 289.957 5.79789 288.591 5.69737 289.022C5.59686 289.454 6.16248 291.803 8.93136 292.472C16.8891 293.753 19.3175 290.738 14.6509 291.336Z" fill="#468D80"/>
</g>
<path d="M26.6779 287.579C27.5901 287.982 29.4145 290.801 23.4852 291.565C17.5032 292.337 5.69727 290.524 5.69727 289.19C5.69727 287.856 17.0998 286.774 20.2925 286.774C23.4852 286.774 25.7657 287.177 26.6779 287.579Z" fill="#FFFBFB"/>
<g style="mix-blend-mode:plus-lighter">
<path d="M34.1863 291.751C34.1863 294.27 29.9955 297.556 24.8258 297.556C19.6562 297.556 14.6514 304.605 15.4654 291.751C15.4654 289.231 20.0632 287.189 25.2328 287.189C30.5235 288.433 26.0468 289.677 34.1863 291.751Z" fill="#FCF6F6"/>
</g>
<path d="M35 327.075C35 330.51 28.6958 333.295 17.907 333.295C7.11816 333.295 0 330.51 0 327.075C0 323.64 7.11816 320.855 17.907 320.855C28.6958 320.855 35 323.64 35 327.075Z" fill="#468D80"/>
<g style="mix-blend-mode:multiply">
<path d="M14.6509 328.734C14.7514 328.302 12.3633 328.693 9.5944 328.024C6.82552 327.355 5.79789 325.989 5.69737 326.42C5.59686 326.852 6.16248 329.201 8.93136 329.87C16.8891 331.151 19.3175 328.136 14.6509 328.734Z" fill="#468D80"/>
</g>
<path d="M26.6779 324.978C27.5901 325.38 29.4145 328.199 23.4852 328.964C17.5032 329.735 5.69727 327.923 5.69727 326.588C5.69727 325.254 17.0998 324.172 20.2925 324.172C23.4852 324.172 25.7657 324.575 26.6779 324.978Z" fill="#FFFBFB"/>
<g style="mix-blend-mode:plus-lighter">
<path d="M34.1863 329.148C34.1863 331.668 29.9955 334.954 24.8258 334.954C19.6562 334.954 14.6514 342.003 15.4654 329.148C15.4654 326.629 20.0632 324.587 25.2328 324.587C30.5235 325.831 26.0468 327.075 34.1863 329.148Z" fill="#FCF6F6"/>
</g>
<path d="M35 365.237C35 368.672 28.6958 371.457 17.907 371.457C7.11816 371.457 0 368.672 0 365.237C0 361.801 7.11816 359.017 17.907 359.017C28.6958 359.017 35 361.801 35 365.237Z" fill="#468D80"/>
<g style="mix-blend-mode:multiply">
<path d="M14.6509 366.895C14.7514 366.463 12.3633 366.855 9.5944 366.185C6.82552 365.516 5.79789 364.15 5.69737 364.582C5.59686 365.014 6.16248 367.362 8.93136 368.032C16.8891 369.313 19.3175 366.297 14.6509 366.895Z" fill="#468D80"/>
</g>
<path d="M26.6779 363.139C27.5901 363.542 29.4145 366.361 23.4852 367.125C17.5032 367.897 5.69727 366.084 5.69727 364.75C5.69727 363.416 17.0998 362.334 20.2925 362.334C23.4852 362.334 25.7657 362.737 26.6779 363.139Z" fill="#FFFBFB"/>
<g style="mix-blend-mode:plus-lighter">
<path d="M34.1863 367.31C34.1863 369.829 29.9955 373.116 24.8258 373.116C19.6562 373.116 14.6514 380.165 15.4654 367.31C15.4654 364.791 20.0632 362.749 25.2328 362.749C30.5235 363.993 26.0468 365.237 34.1863 367.31Z" fill="#FCF6F6"/>
</g>
<path d="M35 405.688C35 409.123 28.6958 411.908 17.907 411.908C7.11816 411.908 0 409.123 0 405.688C0 402.253 7.11816 399.468 17.907 399.468C28.6958 399.468 35 402.253 35 405.688Z" fill="#468D80"/>
<g style="mix-blend-mode:multiply">
<path d="M14.6509 407.347C14.7514 406.915 12.3633 407.306 9.5944 406.637C6.82552 405.968 5.79789 404.602 5.69737 405.034C5.59686 405.465 6.16248 407.814 8.93136 408.483C16.8891 409.764 19.3175 406.749 14.6509 407.347Z" fill="#468D80"/>
</g>
<path d="M26.6779 403.59C27.5901 403.993 29.4145 406.812 23.4852 407.577C17.5032 408.348 5.69727 406.535 5.69727 405.201C5.69727 403.867 17.0998 402.785 20.2925 402.785C23.4852 402.785 25.7657 403.188 26.6779 403.59Z" fill="#FFFBFB"/>
<g style="mix-blend-mode:plus-lighter">
<path d="M34.1863 407.761C34.1863 410.28 29.9955 413.567 24.8258 413.567C19.6562 413.567 14.6514 420.616 15.4654 407.761C15.4654 405.242 20.0632 403.2 25.2328 403.2C30.5235 404.444 26.0468 405.688 34.1863 407.761Z" fill="#FCF6F6"/>
</g>
<path d="M35 442.323C35 445.758 28.6958 448.543 17.907 448.543C7.11816 448.543 0 445.758 0 442.323C0 438.888 7.11816 436.103 17.907 436.103C28.6958 436.103 35 438.888 35 442.323Z" fill="#468D80"/>
<g style="mix-blend-mode:multiply">
<path d="M14.6509 443.982C14.7514 443.55 12.3633 443.942 9.5944 443.272C6.82552 442.603 5.79789 441.237 5.69737 441.669C5.59686 442.101 6.16248 444.449 8.93136 445.119C16.8891 446.4 19.3175 443.384 14.6509 443.982Z" fill="#468D80"/>
</g>
<path d="M26.6779 440.226C27.5901 440.628 29.4145 443.447 23.4852 444.212C17.5032 444.984 5.69727 443.171 5.69727 441.836C5.69727 440.502 17.0998 439.42 20.2925 439.42C23.4852 439.42 25.7657 439.823 26.6779 440.226Z" fill="#FFFBFB"/>
<g style="mix-blend-mode:plus-lighter">
<path d="M34.1863 444.397C34.1863 446.916 29.9955 450.202 24.8258 450.202C19.6562 450.202 14.6514 457.251 15.4654 444.397C15.4654 441.877 20.0632 439.835 25.2328 439.835C30.5235 441.079 26.0468 442.323 34.1863 444.397Z" fill="#FCF6F6"/>
</g>
<path d="M35 481.248C35 484.683 28.6958 487.468 17.907 487.468C7.11816 487.468 0 484.683 0 481.248C0 477.813 7.11816 475.028 17.907 475.028C28.6958 475.028 35 477.813 35 481.248Z" fill="#468D80"/>
<g style="mix-blend-mode:multiply">
<path d="M14.6509 482.906C14.7514 482.475 12.3633 482.866 9.5944 482.197C6.82552 481.528 5.79789 480.161 5.69737 480.593C5.59686 481.025 6.16248 483.374 8.93136 484.043C16.8891 485.324 19.3175 482.308 14.6509 482.906Z" fill="#468D80"/>
</g>
<path d="M26.6779 479.151C27.5901 479.553 29.4145 482.372 23.4852 483.137C17.5032 483.908 5.69727 482.096 5.69727 480.761C5.69727 479.427 17.0998 478.345 20.2925 478.345C23.4852 478.345 25.7657 478.748 26.6779 479.151Z" fill="#FFFBFB"/>
<g style="mix-blend-mode:plus-lighter">
<path d="M34.1863 483.321C34.1863 485.841 29.9955 489.127 24.8258 489.127C19.6562 489.127 14.6514 496.176 15.4654 483.321C15.4654 480.802 20.0632 478.76 25.2328 478.76C30.5235 480.004 26.0468 481.248 34.1863 483.321Z" fill="#FCF6F6"/>
</g>
<path d="M35 518.646C35 522.082 28.6958 524.867 17.907 524.867C7.11816 524.867 0 522.082 0 518.646C0 515.211 7.11816 512.426 17.907 512.426C28.6958 512.426 35 515.211 35 518.646Z" fill="#468D80"/>
<g style="mix-blend-mode:multiply">
<path d="M14.6509 520.305C14.7514 519.874 12.3633 520.265 9.5944 519.596C6.82552 518.926 5.79789 517.56 5.69737 517.992C5.59686 518.424 6.16248 520.773 8.93136 521.442C16.8891 522.723 19.3175 519.707 14.6509 520.305Z" fill="#468D80"/>
</g>
<path d="M26.6779 516.549C27.5901 516.952 29.4145 519.77 23.4852 520.535C17.5032 521.307 5.69727 519.494 5.69727 518.16C5.69727 516.825 17.0998 515.744 20.2925 515.744C23.4852 515.744 25.7657 516.146 26.6779 516.549Z" fill="#FFFBFB"/>
<g style="mix-blend-mode:plus-lighter">
<path d="M34.1863 520.72C34.1863 523.239 29.9955 526.525 24.8258 526.525C19.6562 526.525 14.6514 533.575 15.4654 520.72C15.4654 518.201 20.0632 516.158 25.2328 516.158C30.5235 517.402 26.0468 518.646 34.1863 520.72Z" fill="#FCF6F6"/>
</g>
<path d="M35 556.808C35 560.243 28.6958 563.028 17.907 563.028C7.11816 563.028 0 560.243 0 556.808C0 553.373 7.11816 550.588 17.907 550.588C28.6958 550.588 35 553.373 35 556.808Z" fill="#468D80"/>
<g style="mix-blend-mode:multiply">
<path d="M14.6509 558.466C14.7514 558.035 12.3633 558.426 9.5944 557.757C6.82552 557.088 5.79789 555.721 5.69737 556.153C5.59686 556.585 6.16248 558.934 8.93136 559.603C16.8891 560.884 19.3175 557.868 14.6509 558.466Z" fill="#468D80"/>
</g>
<path d="M26.6779 554.711C27.5901 555.113 29.4145 557.932 23.4852 558.697C17.5032 559.468 5.69727 557.656 5.69727 556.321C5.69727 554.987 17.0998 553.905 20.2925 553.905C23.4852 553.905 25.7657 554.308 26.6779 554.711Z" fill="#FFFBFB"/>
<g style="mix-blend-mode:plus-lighter">
<path d="M34.1863 558.881C34.1863 561.401 29.9955 564.687 24.8258 564.687C19.6562 564.687 14.6514 571.736 15.4654 558.881C15.4654 556.362 20.0632 554.32 25.2328 554.32C30.5235 555.564 26.0468 556.808 34.1863 558.881Z" fill="#FCF6F6"/>
</g>
<path d="M35 596.496C35 599.931 28.6958 602.716 17.907 602.716C7.11816 602.716 0 599.931 0 596.496C0 593.061 7.11816 590.276 17.907 590.276C28.6958 590.276 35 593.061 35 596.496Z" fill="#468D80"/>
<g style="mix-blend-mode:multiply">
<path d="M14.6509 598.155C14.7514 597.723 12.3633 598.114 9.5944 597.445C6.82552 596.776 5.79789 595.41 5.69737 595.842C5.59686 596.274 6.16248 598.622 8.93136 599.291C16.8891 600.573 19.3175 597.557 14.6509 598.155Z" fill="#468D80"/>
</g>
<path d="M26.6779 594.399C27.5901 594.801 29.4145 597.62 23.4852 598.385C17.5032 599.156 5.69727 597.344 5.69727 596.009C5.69727 594.675 17.0998 593.593 20.2925 593.593C23.4852 593.593 25.7657 593.996 26.6779 594.399Z" fill="#FFFBFB"/>
<g style="mix-blend-mode:plus-lighter">
<path d="M34.1863 598.569C34.1863 601.089 29.9955 604.375 24.8258 604.375C19.6562 604.375 14.6514 611.424 15.4654 598.569C15.4654 596.05 20.0632 594.008 25.2328 594.008C30.5235 595.252 26.0468 596.496 34.1863 598.569Z" fill="#FCF6F6"/>
</g>
<path d="M35 639.237C35 642.673 28.6958 645.457 17.907 645.457C7.11816 645.457 0 642.673 0 639.237C0 635.802 7.11816 633.017 17.907 633.017C28.6958 633.017 35 635.802 35 639.237Z" fill="#468D80"/>
<g style="mix-blend-mode:multiply">
<path d="M14.6509 640.896C14.7514 640.464 12.3633 640.856 9.5944 640.186C6.82552 639.517 5.79789 638.151 5.69737 638.583C5.59686 639.015 6.16248 641.363 8.93136 642.033C16.8891 643.314 19.3175 640.298 14.6509 640.896Z" fill="#468D80"/>
</g>
<path d="M26.6779 637.14C27.5901 637.542 29.4145 640.361 23.4852 641.126C17.5032 641.898 5.69727 640.085 5.69727 638.75C5.69727 637.416 17.0998 636.334 20.2925 636.334C23.4852 636.334 25.7657 636.737 26.6779 637.14Z" fill="#FFFBFB"/>
<g style="mix-blend-mode:plus-lighter">
<path d="M34.1863 641.311C34.1863 643.83 29.9955 647.116 24.8258 647.116C19.6562 647.116 14.6514 654.166 15.4654 641.311C15.4654 638.791 20.0632 636.749 25.2328 636.749C30.5235 637.993 26.0468 639.237 34.1863 641.311Z" fill="#FCF6F6"/>
</g>
<path d="M35 685.794C35 689.23 28.6958 692.015 17.907 692.015C7.11816 692.015 0 689.23 0 685.794C0 682.359 7.11816 679.574 17.907 679.574C28.6958 679.574 35 682.359 35 685.794Z" fill="#468D80"/>
<g style="mix-blend-mode:multiply">
<path d="M14.6509 687.453C14.7514 687.022 12.3633 687.413 9.5944 686.744C6.82552 686.074 5.79789 684.708 5.69737 685.14C5.59686 685.572 6.16248 687.921 8.93136 688.59C16.8891 689.871 19.3175 686.855 14.6509 687.453Z" fill="#468D80"/>
</g>
<path d="M26.6779 683.697C27.5901 684.1 29.4145 686.918 23.4852 687.683C17.5032 688.455 5.69727 686.642 5.69727 685.308C5.69727 683.973 17.0998 682.892 20.2925 682.892C23.4852 682.892 25.7657 683.294 26.6779 683.697Z" fill="#FFFBFB"/>
<g style="mix-blend-mode:plus-lighter">
<path d="M34.1863 687.868C34.1863 690.387 29.9955 693.674 24.8258 693.674C19.6562 693.674 14.6514 700.723 15.4654 687.868C15.4654 685.349 20.0632 683.307 25.2328 683.307C30.5235 684.551 26.0468 685.795 34.1863 687.868Z" fill="#FCF6F6"/>
</g>
<path d="M35 727.009C35 730.445 28.6958 733.229 17.907 733.229C7.11816 733.229 0 730.445 0 727.009C0 723.574 7.11816 720.789 17.907 720.789C28.6958 720.789 35 723.574 35 727.009Z" fill="#468D80"/>
<g style="mix-blend-mode:multiply">
<path d="M14.6509 728.668C14.7514 728.236 12.3633 728.628 9.5944 727.958C6.82552 727.289 5.79789 725.923 5.69737 726.355C5.59686 726.787 6.16248 729.135 8.93136 729.805C16.8891 731.086 19.3175 728.07 14.6509 728.668Z" fill="#468D80"/>
</g>
<path d="M26.6779 724.912C27.5901 725.314 29.4145 728.133 23.4852 728.898C17.5032 729.67 5.69727 727.857 5.69727 726.522C5.69727 725.188 17.0998 724.106 20.2925 724.106C23.4852 724.106 25.7657 724.509 26.6779 724.912Z" fill="#FFFBFB"/>
<g style="mix-blend-mode:plus-lighter">
<path d="M34.1863 729.083C34.1863 731.602 29.9955 734.889 24.8258 734.889C19.6562 734.889 14.6514 741.938 15.4654 729.083C15.4654 726.564 20.0632 724.521 25.2328 724.521C30.5235 725.766 26.0468 727.01 34.1863 729.083Z" fill="#FCF6F6"/>
</g>
<path d="M35 771.277C35 774.712 28.6958 777.497 17.907 777.497C7.11816 777.497 0 774.712 0 771.277C0 767.841 7.11816 765.057 17.907 765.057C28.6958 765.057 35 767.841 35 771.277Z" fill="#468D80"/>
<g style="mix-blend-mode:multiply">
<path d="M14.6509 772.935C14.7514 772.503 12.3633 772.895 9.5944 772.225C6.82552 771.556 5.79789 770.19 5.69737 770.622C5.59686 771.054 6.16248 773.402 8.93136 774.072C16.8891 775.353 19.3175 772.337 14.6509 772.935Z" fill="#468D80"/>
</g>
<path d="M26.6779 769.179C27.5901 769.582 29.4145 772.401 23.4852 773.166C17.5032 773.937 5.69727 772.124 5.69727 770.79C5.69727 769.456 17.0998 768.374 20.2925 768.374C23.4852 768.374 25.7657 768.777 26.6779 769.179Z" fill="#FFFBFB"/>
<g style="mix-blend-mode:plus-lighter">
<path d="M34.1863 773.35C34.1863 775.869 29.9955 779.156 24.8258 779.156C19.6562 779.156 14.6514 786.205 15.4654 773.35C15.4654 770.831 20.0632 768.789 25.2328 768.789C30.5235 770.033 26.0468 771.277 34.1863 773.35Z" fill="#FCF6F6"/>
</g>
</svg>
